<svg width="32" height="32" viewBox="0 0 32 32" xmlns="http://www.w3.org/2000/svg">
  <!-- Background -->
  <rect width="32" height="32" fill="#1a1a1a"/>
  
  <!-- Pixel art unicorn (2x2 pixel blocks for more detail) -->
  
  <!-- Horn -->
  <rect x="14" y="2" width="2" height="2" fill="#fbbf24"/>
  <rect x="14" y="4" width="2" height="2" fill="#f59e0b"/>
  <rect x="14" y="6" width="2" height="2" fill="#fbbf24"/>
  
  <!-- Ears -->
  <rect x="10" y="6" width="2" height="2" fill="#f9a8d4"/>
  <rect x="18" y="6" width="2" height="2" fill="#f9a8d4"/>
  
  <!-- Head -->
  <rect x="10" y="8" width="10" height="2" fill="#f9a8d4"/>
  <rect x="8" y="10" width="14" height="6" fill="#f9a8d4"/>
  
  <!-- Mane (rainbow colors) -->
  <rect x="6" y="8" width="2" height="4" fill="#ef4444"/>
  <rect x="4" y="10" width="2" height="4" fill="#f97316"/>
  <rect x="2" y="12" width="2" height="4" fill="#fbbf24"/>
  <rect x="4" y="14" width="2" height="4" fill="#84cc16"/>
  <rect x="6" y="16" width="2" height="4" fill="#06b6d4"/>
  <rect x="8" y="18" width="2" height="4" fill="#8b5cf6"/>
  
  <!-- Eye -->
  <rect x="16" y="12" width="2" height="2" fill="#1a1a1a"/>
  <rect x="16" y="12" width="1" height="1" fill="#3b82f6"/>
  
  <!-- Nostril -->
  <rect x="20" y="14" width="1" height="1" fill="#ec4899"/>
  
  <!-- Body -->
  <rect x="10" y="16" width="12" height="4" fill="#f9a8d4"/>
  <rect x="8" y="18" width="14" height="6" fill="#f9a8d4"/>
  
  <!-- Legs -->
  <rect x="10" y="24" width="3" height="4" fill="#f9a8d4"/>
  <rect x="16" y="24" width="3" height="4" fill="#f9a8d4"/>
  
  <!-- Hooves -->
  <rect x="10" y="28" width="3" height="2" fill="#6b7280"/>
  <rect x="16" y="28" width="3" height="2" fill="#6b7280"/>
  
  <!-- Tail (rainbow) -->
  <rect x="22" y="18" width="2" height="2" fill="#ef4444"/>
  <rect x="24" y="19" width="2" height="2" fill="#f97316"/>
  <rect x="26" y="20" width="2" height="2" fill="#fbbf24"/>
  <rect x="24" y="21" width="2" height="2" fill="#84cc16"/>
  <rect x="22" y="22" width="2" height="2" fill="#06b6d4"/>
  
  <!-- Magic sparkles -->
  <rect x="24" y="8" width="1" height="1" fill="#fbbf24"/>
  <rect x="26" y="10" width="1" height="1" fill="#a78bfa"/>
  <rect x="22" y="6" width="1" height="1" fill="#60a5fa"/>
  <rect x="28" y="12" width="1" height="1" fill="#f9a8d4"/>
</svg>